<svg width="232" height="363" viewBox="0 0 232 363" fill="none" xmlns="http://www.w3.org/2000/svg">
<path d="M106.342 1.78865H117.083V12.5164H106.342V1.78865Z" fill="url(#paint0_linear_116_186)"/>
<path d="M53.7763 1.78865H64.5168V12.5164H53.7763V1.78865Z" fill="url(#paint1_linear_116_186)"/>
<path d="M0 1.78865H10.7406V12.5164H0V1.78865Z" fill="url(#paint2_linear_116_186)"/>
<path d="M167.205 0L176.507 5.36386L171.137 14.6543L161.835 9.29047L167.205 0Z" fill="url(#paint3_linear_116_186)"/>
<path d="M226.63 0L232 9.29047L222.698 14.6543L217.328 5.36386L226.63 0Z" fill="url(#paint4_linear_116_186)"/>
<path d="M106.342 51.5502H117.083V62.2779H106.342V51.5502Z" fill="url(#paint5_linear_116_186)"/>
<path d="M53.7763 51.5502H64.5168V62.2779H53.7763V51.5502Z" fill="url(#paint6_linear_116_186)"/>
<path d="M0 51.5502H10.7406V62.2779H0V51.5502Z" fill="url(#paint7_linear_116_186)"/>
<path d="M167.205 49.7629L176.507 55.1267L171.137 64.4172L161.835 59.0533L167.205 49.7629Z" fill="url(#paint8_linear_116_186)"/>
<path d="M226.63 49.7629L232 59.0533L222.698 64.4172L217.328 55.1267L226.63 49.7629Z" fill="url(#paint9_linear_116_186)"/>
<path d="M106.342 101.314H117.083V112.042H106.342V101.314Z" fill="url(#paint10_linear_116_186)"/>
<path d="M53.7763 101.314H64.5168V112.042H53.7763V101.314Z" fill="url(#paint11_linear_116_186)"/>
<path d="M0 101.314H10.7406V112.042H0V101.314Z" fill="url(#paint12_linear_116_186)"/>
<path d="M167.031 99.5261L176.332 104.89L170.962 114.18L161.66 108.817L167.031 99.5261Z" fill="url(#paint13_linear_116_186)"/>
<path d="M226.63 99.5261L232 108.817L222.698 114.18L217.328 104.89L226.63 99.5261Z" fill="url(#paint14_linear_116_186)"/>
<path d="M106.342 151.078H117.083V161.806H106.342V151.078Z" fill="url(#paint15_linear_116_186)"/>
<path d="M53.7763 151.078H64.5168V161.806H53.7763V151.078Z" fill="url(#paint16_linear_116_186)"/>
<path d="M0 151.078H10.7406V161.806H0V151.078Z" fill="url(#paint17_linear_116_186)"/>
<path d="M167.205 149.29L176.507 154.654L171.137 163.944L161.835 158.58L167.205 149.29Z" fill="url(#paint18_linear_116_186)"/>
<path d="M226.63 149.29L232 158.58L222.698 163.944L217.328 154.654L226.63 149.29Z" fill="url(#paint19_linear_116_186)"/>
<path d="M106.342 200.842H117.083V211.57H106.342V200.842Z" fill="url(#paint20_linear_116_186)"/>
<path d="M53.7763 200.842H64.5168V211.57H53.7763V200.842Z" fill="url(#paint21_linear_116_186)"/>
<path d="M0 200.842H10.7406V211.57H0V200.842Z" fill="url(#paint22_linear_116_186)"/>
<path d="M167.205 199.055L176.507 204.418L171.137 213.709L161.835 208.345L167.205 199.055Z" fill="url(#paint23_linear_116_186)"/>
<path d="M226.63 199.055L232 208.345L222.698 213.709L217.328 204.418L226.63 199.055Z" fill="url(#paint24_linear_116_186)"/>
<path d="M106.342 250.605H117.083V261.333H106.342V250.605Z" fill="url(#paint25_linear_116_186)"/>
<path d="M53.7763 250.605H64.5168V261.333H53.7763V250.605Z" fill="url(#paint26_linear_116_186)"/>
<path d="M0 250.605H10.7406V261.333H0V250.605Z" fill="url(#paint27_linear_116_186)"/>
<path d="M167.031 248.818L176.332 254.182L170.962 263.472L161.66 258.108L167.031 248.818Z" fill="url(#paint28_linear_116_186)"/>
<path d="M226.63 248.818L232 258.108L222.698 263.472L217.328 254.182L226.63 248.818Z" fill="url(#paint29_linear_116_186)"/>
<path d="M106.342 300.371H117.083V311.099H106.342V300.371Z" fill="url(#paint30_linear_116_186)"/>
<path d="M53.7763 300.371H64.5168V311.099H53.7763V300.371Z" fill="url(#paint31_linear_116_186)"/>
<path d="M0 300.371H10.7406V311.099H0V300.371Z" fill="url(#paint32_linear_116_186)"/>
<path d="M167.205 298.583L176.507 303.946L171.137 313.237L161.835 307.873L167.205 298.583Z" fill="url(#paint33_linear_116_186)"/>
<path d="M226.63 298.583L232 307.873L222.698 313.237L217.328 303.946L226.63 298.583Z" fill="url(#paint34_linear_116_186)"/>
<path d="M106.342 350.133H117.083V360.861H106.342V350.133Z" fill="url(#paint35_linear_116_186)"/>
<path d="M53.7763 350.133H64.5168V360.861H53.7763V350.133Z" fill="url(#paint36_linear_116_186)"/>
<path d="M0 350.133H10.7406V360.861H0V350.133Z" fill="url(#paint37_linear_116_186)"/>
<path d="M167.205 348.346L176.507 353.71L171.137 363L161.835 357.636L167.205 348.346Z" fill="url(#paint38_linear_116_186)"/>
<path d="M226.63 348.346L232 357.636L222.698 363L217.328 353.71L226.63 348.346Z" fill="url(#paint39_linear_116_186)"/>
<defs>
<linearGradient id="paint0_linear_116_186" x1="20.4706" y1="322.963" x2="313.246" y2="185.377" gradientUnits="userSpaceOnUse">
<stop stop-color="#68DF7E"/>
<stop offset="1" stop-color="#10B52E"/>
</linearGradient>
<linearGradient id="paint1_linear_116_186" x1="20.4706" y1="322.963" x2="313.246" y2="185.377" gradientUnits="userSpaceOnUse">
<stop stop-color="#68DF7E"/>
<stop offset="1" stop-color="#10B52E"/>
</linearGradient>
<linearGradient id="paint2_linear_116_186" x1="20.4706" y1="322.963" x2="313.246" y2="185.377" gradientUnits="userSpaceOnUse">
<stop stop-color="#68DF7E"/>
<stop offset="1" stop-color="#10B52E"/>
</linearGradient>
<linearGradient id="paint3_linear_116_186" x1="20.4706" y1="322.963" x2="313.246" y2="185.377" gradientUnits="userSpaceOnUse">
<stop stop-color="#68DF7E"/>
<stop offset="1" stop-color="#10B52E"/>
</linearGradient>
<linearGradient id="paint4_linear_116_186" x1="20.4706" y1="322.963" x2="313.246" y2="185.377" gradientUnits="userSpaceOnUse">
<stop stop-color="#68DF7E"/>
<stop offset="1" stop-color="#10B52E"/>
</linearGradient>
<linearGradient id="paint5_linear_116_186" x1="20.4706" y1="322.963" x2="313.246" y2="185.377" gradientUnits="userSpaceOnUse">
<stop stop-color="#68DF7E"/>
<stop offset="1" stop-color="#10B52E"/>
</linearGradient>
<linearGradient id="paint6_linear_116_186" x1="20.4706" y1="322.963" x2="313.246" y2="185.377" gradientUnits="userSpaceOnUse">
<stop stop-color="#68DF7E"/>
<stop offset="1" stop-color="#10B52E"/>
</linearGradient>
<linearGradient id="paint7_linear_116_186" x1="20.4706" y1="322.963" x2="313.246" y2="185.377" gradientUnits="userSpaceOnUse">
<stop stop-color="#68DF7E"/>
<stop offset="1" stop-color="#10B52E"/>
</linearGradient>
<linearGradient id="paint8_linear_116_186" x1="20.4706" y1="322.963" x2="313.246" y2="185.377" gradientUnits="userSpaceOnUse">
<stop stop-color="#68DF7E"/>
<stop offset="1" stop-color="#10B52E"/>
</linearGradient>
<linearGradient id="paint9_linear_116_186" x1="20.4706" y1="322.963" x2="313.246" y2="185.377" gradientUnits="userSpaceOnUse">
<stop stop-color="#68DF7E"/>
<stop offset="1" stop-color="#10B52E"/>
</linearGradient>
<linearGradient id="paint10_linear_116_186" x1="20.4706" y1="322.963" x2="313.246" y2="185.377" gradientUnits="userSpaceOnUse">
<stop stop-color="#68DF7E"/>
<stop offset="1" stop-color="#10B52E"/>
</linearGradient>
<linearGradient id="paint11_linear_116_186" x1="20.4706" y1="322.963" x2="313.246" y2="185.377" gradientUnits="userSpaceOnUse">
<stop stop-color="#68DF7E"/>
<stop offset="1" stop-color="#10B52E"/>
</linearGradient>
<linearGradient id="paint12_linear_116_186" x1="20.4706" y1="322.963" x2="313.246" y2="185.377" gradientUnits="userSpaceOnUse">
<stop stop-color="#68DF7E"/>
<stop offset="1" stop-color="#10B52E"/>
</linearGradient>
<linearGradient id="paint13_linear_116_186" x1="20.4706" y1="322.963" x2="313.246" y2="185.377" gradientUnits="userSpaceOnUse">
<stop stop-color="#68DF7E"/>
<stop offset="1" stop-color="#10B52E"/>
</linearGradient>
<linearGradient id="paint14_linear_116_186" x1="20.4706" y1="322.963" x2="313.246" y2="185.377" gradientUnits="userSpaceOnUse">
<stop stop-color="#68DF7E"/>
<stop offset="1" stop-color="#10B52E"/>
</linearGradient>
<linearGradient id="paint15_linear_116_186" x1="20.4706" y1="322.963" x2="313.246" y2="185.377" gradientUnits="userSpaceOnUse">
<stop stop-color="#68DF7E"/>
<stop offset="1" stop-color="#10B52E"/>
</linearGradient>
<linearGradient id="paint16_linear_116_186" x1="20.4706" y1="322.963" x2="313.246" y2="185.377" gradientUnits="userSpaceOnUse">
<stop stop-color="#68DF7E"/>
<stop offset="1" stop-color="#10B52E"/>
</linearGradient>
<linearGradient id="paint17_linear_116_186" x1="20.4706" y1="322.963" x2="313.246" y2="185.377" gradientUnits="userSpaceOnUse">
<stop stop-color="#68DF7E"/>
<stop offset="1" stop-color="#10B52E"/>
</linearGradient>
<linearGradient id="paint18_linear_116_186" x1="20.4706" y1="322.963" x2="313.246" y2="185.377" gradientUnits="userSpaceOnUse">
<stop stop-color="#68DF7E"/>
<stop offset="1" stop-color="#10B52E"/>
</linearGradient>
<linearGradient id="paint19_linear_116_186" x1="20.4706" y1="322.963" x2="313.246" y2="185.377" gradientUnits="userSpaceOnUse">
<stop stop-color="#68DF7E"/>
<stop offset="1" stop-color="#10B52E"/>
</linearGradient>
<linearGradient id="paint20_linear_116_186" x1="20.4706" y1="322.963" x2="313.246" y2="185.377" gradientUnits="userSpaceOnUse">
<stop stop-color="#68DF7E"/>
<stop offset="1" stop-color="#10B52E"/>
</linearGradient>
<linearGradient id="paint21_linear_116_186" x1="20.4706" y1="322.963" x2="313.246" y2="185.377" gradientUnits="userSpaceOnUse">
<stop stop-color="#68DF7E"/>
<stop offset="1" stop-color="#10B52E"/>
</linearGradient>
<linearGradient id="paint22_linear_116_186" x1="20.4706" y1="322.963" x2="313.246" y2="185.377" gradientUnits="userSpaceOnUse">
<stop stop-color="#68DF7E"/>
<stop offset="1" stop-color="#10B52E"/>
</linearGradient>
<linearGradient id="paint23_linear_116_186" x1="20.4706" y1="322.963" x2="313.246" y2="185.377" gradientUnits="userSpaceOnUse">
<stop stop-color="#68DF7E"/>
<stop offset="1" stop-color="#10B52E"/>
</linearGradient>
<linearGradient id="paint24_linear_116_186" x1="20.4706" y1="322.963" x2="313.246" y2="185.377" gradientUnits="userSpaceOnUse">
<stop stop-color="#68DF7E"/>
<stop offset="1" stop-color="#10B52E"/>
</linearGradient>
<linearGradient id="paint25_linear_116_186" x1="20.4706" y1="322.963" x2="313.246" y2="185.377" gradientUnits="userSpaceOnUse">
<stop stop-color="#68DF7E"/>
<stop offset="1" stop-color="#10B52E"/>
</linearGradient>
<linearGradient id="paint26_linear_116_186" x1="20.4706" y1="322.963" x2="313.246" y2="185.377" gradientUnits="userSpaceOnUse">
<stop stop-color="#68DF7E"/>
<stop offset="1" stop-color="#10B52E"/>
</linearGradient>
<linearGradient id="paint27_linear_116_186" x1="20.4706" y1="322.963" x2="313.246" y2="185.377" gradientUnits="userSpaceOnUse">
<stop stop-color="#68DF7E"/>
<stop offset="1" stop-color="#10B52E"/>
</linearGradient>
<linearGradient id="paint28_linear_116_186" x1="20.4706" y1="322.963" x2="313.246" y2="185.377" gradientUnits="userSpaceOnUse">
<stop stop-color="#68DF7E"/>
<stop offset="1" stop-color="#10B52E"/>
</linearGradient>
<linearGradient id="paint29_linear_116_186" x1="20.4706" y1="322.963" x2="313.246" y2="185.377" gradientUnits="userSpaceOnUse">
<stop stop-color="#68DF7E"/>
<stop offset="1" stop-color="#10B52E"/>
</linearGradient>
<linearGradient id="paint30_linear_116_186" x1="20.4706" y1="322.963" x2="313.246" y2="185.377" gradientUnits="userSpaceOnUse">
<stop stop-color="#68DF7E"/>
<stop offset="1" stop-color="#10B52E"/>
</linearGradient>
<linearGradient id="paint31_linear_116_186" x1="20.4706" y1="322.963" x2="313.246" y2="185.377" gradientUnits="userSpaceOnUse">
<stop stop-color="#68DF7E"/>
<stop offset="1" stop-color="#10B52E"/>
</linearGradient>
<linearGradient id="paint32_linear_116_186" x1="20.4706" y1="322.963" x2="313.246" y2="185.377" gradientUnits="userSpaceOnUse">
<stop stop-color="#68DF7E"/>
<stop offset="1" stop-color="#10B52E"/>
</linearGradient>
<linearGradient id="paint33_linear_116_186" x1="20.4706" y1="322.963" x2="313.246" y2="185.377" gradientUnits="userSpaceOnUse">
<stop stop-color="#68DF7E"/>
<stop offset="1" stop-color="#10B52E"/>
</linearGradient>
<linearGradient id="paint34_linear_116_186" x1="20.4706" y1="322.963" x2="313.246" y2="185.377" gradientUnits="userSpaceOnUse">
<stop stop-color="#68DF7E"/>
<stop offset="1" stop-color="#10B52E"/>
</linearGradient>
<linearGradient id="paint35_linear_116_186" x1="20.4706" y1="322.963" x2="313.246" y2="185.377" gradientUnits="userSpaceOnUse">
<stop stop-color="#68DF7E"/>
<stop offset="1" stop-color="#10B52E"/>
</linearGradient>
<linearGradient id="paint36_linear_116_186" x1="20.4706" y1="322.963" x2="313.246" y2="185.377" gradientUnits="userSpaceOnUse">
<stop stop-color="#68DF7E"/>
<stop offset="1" stop-color="#10B52E"/>
</linearGradient>
<linearGradient id="paint37_linear_116_186" x1="20.4706" y1="322.963" x2="313.246" y2="185.377" gradientUnits="userSpaceOnUse">
<stop stop-color="#68DF7E"/>
<stop offset="1" stop-color="#10B52E"/>
</linearGradient>
<linearGradient id="paint38_linear_116_186" x1="20.4706" y1="322.963" x2="313.246" y2="185.377" gradientUnits="userSpaceOnUse">
<stop stop-color="#68DF7E"/>
<stop offset="1" stop-color="#10B52E"/>
</linearGradient>
<linearGradient id="paint39_linear_116_186" x1="20.4706" y1="322.963" x2="313.246" y2="185.377" gradientUnits="userSpaceOnUse">
<stop stop-color="#68DF7E"/>
<stop offset="1" stop-color="#10B52E"/>
</linearGradient>
</defs>
</svg>
