<svg width="54" height="54" viewBox="0 0 54 54" fill="none" xmlns="http://www.w3.org/2000/svg">
<path d="M25.002 52.5714L21.8508 43.2755C20.1105 38.1414 16.0593 33.9574 10.7245 32.1491L1.42861 28.998C-0.476362 28.3522 -0.476046 25.6477 1.42861 25.002L10.7245 21.8508C15.8585 20.1105 20.0425 16.0592 21.8508 10.7244L25.002 1.42858C25.6478 -0.476404 28.3523 -0.475982 28.998 1.42858L32.1492 10.7244C33.8895 15.8584 37.9407 20.0424 43.2755 21.8508L52.5714 25.002C54.4764 25.6478 54.476 28.3523 52.5714 28.998L43.2755 32.1491C38.1417 33.8894 33.9576 37.9407 32.1492 43.2755L28.998 52.5714C28.3522 54.4765 25.6476 54.4759 25.002 52.5714ZM8.67726 26.9999L12.0792 28.153C18.432 30.3065 23.6092 35.3195 25.8469 41.9208L27 45.3227L28.1532 41.9208C30.3067 35.568 35.3197 30.3907 41.921 28.153L45.3228 26.9999L41.9209 25.8467C35.5681 23.6932 30.3908 18.6802 28.1531 12.0789L27 8.67695L25.8468 12.0789C23.6934 18.4317 18.6803 23.609 12.0792 25.8467L8.67726 26.9999Z" fill="url(#paint0_linear_116_341)"/>
<defs>
<linearGradient id="paint0_linear_116_341" x1="4.76471" y1="48.0441" x2="58.7647" y2="8.33823" gradientUnits="userSpaceOnUse">
<stop stop-color="#68DF7E"/>
<stop offset="1" stop-color="#10B52E"/>
</linearGradient>
</defs>
</svg>
