<svg width="135" height="211" viewBox="0 0 135 211" fill="none" xmlns="http://www.w3.org/2000/svg">
<path d="M61.8801 1.03968H68.13V7.27535H61.8801V1.03968Z" fill="white"/>
<path d="M31.2922 1.03968H37.5421V7.27535H31.2922V1.03968Z" fill="white"/>
<path d="M0 1.03968H6.2499V7.27535H0V1.03968Z" fill="white"/>
<path d="M97.2962 0L102.709 3.11783L99.5838 8.51808L94.1713 5.40025L97.2962 0Z" fill="white"/>
<path d="M131.875 0L135 5.40025L129.587 8.51808L126.462 3.11783L131.875 0Z" fill="white"/>
<path d="M61.8801 29.9644H68.13V36.2001H61.8801V29.9644Z" fill="white"/>
<path d="M31.2922 29.9644H37.5421V36.2001H31.2922V29.9644Z" fill="white"/>
<path d="M0 29.9644H6.2499V36.2001H0V29.9644Z" fill="white"/>
<path d="M97.2962 28.9255L102.709 32.0434L99.5838 37.4436L94.1713 34.3258L97.2962 28.9255Z" fill="white"/>
<path d="M131.875 28.9255L135 34.3258L129.587 37.4436L126.462 32.0434L131.875 28.9255Z" fill="white"/>
<path d="M61.8801 58.8905H68.13V65.1262H61.8801V58.8905Z" fill="white"/>
<path d="M31.2922 58.8905H37.5421V65.1262H31.2922V58.8905Z" fill="white"/>
<path d="M0 58.8905H6.2499V65.1262H0V58.8905Z" fill="white"/>
<path d="M97.1946 57.8512L102.607 60.9691L99.4822 66.3693L94.0697 63.2515L97.1946 57.8512Z" fill="white"/>
<path d="M131.875 57.8512L135 63.2515L129.587 66.3693L126.462 60.9691L131.875 57.8512Z" fill="white"/>
<path d="M61.8801 87.8169H68.13V94.0526H61.8801V87.8169Z" fill="white"/>
<path d="M31.2922 87.8169H37.5421V94.0526H31.2922V87.8169Z" fill="white"/>
<path d="M0 87.8169H6.2499V94.0526H0V87.8169Z" fill="white"/>
<path d="M97.2962 86.7772L102.709 89.8951L99.5838 95.2953L94.1713 92.1775L97.2962 86.7772Z" fill="white"/>
<path d="M131.875 86.7772L135 92.1775L129.587 95.2953L126.462 89.8951L131.875 86.7772Z" fill="white"/>
<path d="M61.8801 116.743H68.13V122.978H61.8801V116.743Z" fill="white"/>
<path d="M31.2922 116.743H37.5421V122.978H31.2922V116.743Z" fill="white"/>
<path d="M0 116.743H6.2499V122.978H0V116.743Z" fill="white"/>
<path d="M97.2962 115.704L102.709 118.822L99.5838 124.222L94.1713 121.104L97.2962 115.704Z" fill="white"/>
<path d="M131.875 115.704L135 121.104L129.587 124.222L126.462 118.822L131.875 115.704Z" fill="white"/>
<path d="M61.8801 145.668H68.13V151.904H61.8801V145.668Z" fill="white"/>
<path d="M31.2922 145.668H37.5421V151.904H31.2922V145.668Z" fill="white"/>
<path d="M0 145.668H6.2499V151.904H0V145.668Z" fill="white"/>
<path d="M97.1946 144.63L102.607 147.747L99.4822 153.148L94.0697 150.03L97.1946 144.63Z" fill="white"/>
<path d="M131.875 144.63L135 150.03L129.587 153.148L126.462 147.747L131.875 144.63Z" fill="white"/>
<path d="M61.8801 174.596H68.13V180.832H61.8801V174.596Z" fill="white"/>
<path d="M31.2922 174.596H37.5421V180.832H31.2922V174.596Z" fill="white"/>
<path d="M0 174.596H6.2499V180.832H0V174.596Z" fill="white"/>
<path d="M97.2962 173.556L102.709 176.674L99.5838 182.074L94.1713 178.956L97.2962 173.556Z" fill="white"/>
<path d="M131.875 173.556L135 178.956L129.587 182.074L126.462 176.674L131.875 173.556Z" fill="white"/>
<path d="M61.8801 203.521H68.13V209.757H61.8801V203.521Z" fill="white"/>
<path d="M31.2922 203.521H37.5421V209.757H31.2922V203.521Z" fill="white"/>
<path d="M0 203.521H6.2499V209.757H0V203.521Z" fill="white"/>
<path d="M97.2962 202.482L102.709 205.6L99.5838 211L94.1713 207.882L97.2962 202.482Z" fill="white"/>
<path d="M131.875 202.482L135 207.882L129.587 211L126.462 205.6L131.875 202.482Z" fill="white"/>
</svg>
