<svg width="295" height="217" viewBox="0 0 295 217" fill="none" xmlns="http://www.w3.org/2000/svg">
<path d="M79.5 216.6C61.1 216.6 45.5 213.5 32.7 207.3C19.9 200.9 9 192.7 0 182.7L30 152.4C44.2 168.4 61.7 176.4 82.5 176.4C93.7 176.4 102 174.1 107.4 169.5C112.8 164.9 115.5 158.8 115.5 151.2C115.5 145.4 113.9 140.6 110.7 136.8C107.5 132.8 101 130.1 91.2 128.7L70.5 126C48.3 123.2 32 116.5 21.6 105.9C11.4 95.3 6.3 81.2 6.3 63.6C6.3 54.2 8.1 45.6 11.7 37.8C15.3 30 20.4 23.3 27 17.7C33.8 12.1 42 7.80001 51.6 4.80001C61.4 1.6 72.5 0 84.9 0C100.7 0 114.6 2.5 126.6 7.49999C138.6 12.5 148.9 19.8 157.5 29.4L127.2 60C122.2 54.2 116.1 49.5 108.9 45.9C101.9 42.1 93 40.2 82.2 40.2C72 40.2 64.4 42 59.4 45.6C54.4 49.2 51.9 54.2 51.9 60.6C51.9 67.8 53.8 73 57.6 76.2C61.6 79.4 68 81.7 76.8 83.1L97.5 86.4C119.1 89.8 135.1 96.5 145.5 106.5C155.9 116.3 161.1 130.3 161.1 148.5C161.1 158.5 159.3 167.7 155.7 176.1C152.1 184.5 146.8 191.7 139.8 197.7C133 203.7 124.5 208.4 114.3 211.8C104.1 215 92.5 216.6 79.5 216.6Z" fill="white"/>
<path d="M256 179.7H254.5C252.9 190.3 247.5 199.1 238.3 206.1C229.1 213.1 216.6 216.6 200.8 216.6C188.8 216.6 177.6 214.3 167.2 209.7C156.8 205.1 147.7 198.3 139.9 189.3C132.1 180.3 126 169.1 121.6 155.7C117.2 142.3 115 126.8 115 109.2C115 91.6 117.3 76 121.9 62.4C126.5 48.8 132.9 37.4 141.1 28.2C149.5 19 159.5 12 171.1 7.2C182.7 2.4 195.6 0 209.8 0C228.6 0 244.8 4.1 258.4 12.3C272 20.3 282.7 32.4 290.5 48.6L253.3 69.9C250.1 61.7 245.1 54.8 238.3 49.2C231.5 43.4 222 40.5 209.8 40.5C195.6 40.5 184.3 44.6 175.9 52.8C167.5 61 163.3 73.9 163.3 91.5V125.1C163.3 142.5 167.5 155.4 175.9 163.8C184.3 172 195.6 176.1 209.8 176.1C215.4 176.1 220.7 175.5 225.7 174.3C230.7 172.9 235.1 170.9 238.9 168.3C242.7 165.5 245.6 162.2 247.6 158.4C249.8 154.6 250.9 150.1 250.9 144.9V134.4H211.9V96.3H294.4V213H256V179.7Z" fill="white"/>
</svg>
