<svg width="419" height="419" viewBox="0 0 419 419" fill="none" xmlns="http://www.w3.org/2000/svg">
<circle cx="209.5" cy="209.5" r="203.5" fill="#141414" stroke="url(#paint0_linear_117_647)" stroke-width="12"/>
<path d="M172.64 229V215.04H178.92C179.56 215.04 180.133 215.147 180.64 215.36C181.16 215.56 181.6 215.853 181.96 216.24C182.32 216.613 182.593 217.067 182.78 217.6C182.967 218.133 183.06 218.72 183.06 219.36C183.06 220.013 182.967 220.607 182.78 221.14C182.593 221.66 182.32 222.113 181.96 222.5C181.6 222.873 181.16 223.167 180.64 223.38C180.133 223.58 179.56 223.68 178.92 223.68H175.28V229H172.64ZM175.28 221.4H178.68C179.187 221.4 179.587 221.267 179.88 221C180.173 220.72 180.32 220.327 180.32 219.82V218.9C180.32 218.393 180.173 218.007 179.88 217.74C179.587 217.473 179.187 217.34 178.68 217.34H175.28V221.4ZM193.912 223.1H188.093V229H185.453V215.04H188.093V220.76H193.912V215.04H196.553V229H193.912V223.1ZM205.308 229.24C204.388 229.24 203.554 229.087 202.808 228.78C202.061 228.473 201.421 228.013 200.888 227.4C200.368 226.787 199.961 226.033 199.668 225.14C199.374 224.247 199.228 223.207 199.228 222.02C199.228 220.847 199.374 219.813 199.668 218.92C199.961 218.013 200.368 217.253 200.888 216.64C201.421 216.027 202.061 215.567 202.808 215.26C203.554 214.953 204.388 214.8 205.308 214.8C206.228 214.8 207.061 214.953 207.808 215.26C208.554 215.567 209.194 216.027 209.728 216.64C210.261 217.253 210.668 218.013 210.948 218.92C211.241 219.813 211.388 220.847 211.388 222.02C211.388 223.207 211.241 224.247 210.948 225.14C210.668 226.033 210.261 226.787 209.728 227.4C209.194 228.013 208.554 228.473 207.808 228.78C207.061 229.087 206.228 229.24 205.308 229.24ZM205.308 226.9C206.308 226.9 207.101 226.567 207.688 225.9C208.288 225.233 208.588 224.3 208.588 223.1V220.94C208.588 219.74 208.288 218.807 207.688 218.14C207.101 217.473 206.308 217.14 205.308 217.14C204.308 217.14 203.508 217.473 202.908 218.14C202.321 218.807 202.028 219.74 202.028 220.94V223.1C202.028 224.3 202.321 225.233 202.908 225.9C203.508 226.567 204.308 226.9 205.308 226.9ZM219.058 217.38V229H216.418V217.38H212.458V215.04H223.018V217.38H219.058ZM230.171 229.24C229.251 229.24 228.417 229.087 227.671 228.78C226.924 228.473 226.284 228.013 225.751 227.4C225.231 226.787 224.824 226.033 224.531 225.14C224.237 224.247 224.091 223.207 224.091 222.02C224.091 220.847 224.237 219.813 224.531 218.92C224.824 218.013 225.231 217.253 225.751 216.64C226.284 216.027 226.924 215.567 227.671 215.26C228.417 214.953 229.251 214.8 230.171 214.8C231.091 214.8 231.924 214.953 232.671 215.26C233.417 215.567 234.057 216.027 234.591 216.64C235.124 217.253 235.531 218.013 235.811 218.92C236.104 219.813 236.251 220.847 236.251 222.02C236.251 223.207 236.104 224.247 235.811 225.14C235.531 226.033 235.124 226.787 234.591 227.4C234.057 228.013 233.417 228.473 232.671 228.78C231.924 229.087 231.091 229.24 230.171 229.24ZM230.171 226.9C231.171 226.9 231.964 226.567 232.551 225.9C233.151 225.233 233.451 224.3 233.451 223.1V220.94C233.451 219.74 233.151 218.807 232.551 218.14C231.964 217.473 231.171 217.14 230.171 217.14C229.171 217.14 228.371 217.473 227.771 218.14C227.184 218.807 226.891 219.74 226.891 220.94V223.1C226.891 224.3 227.184 225.233 227.771 225.9C228.371 226.567 229.171 226.9 230.171 226.9Z" fill="url(#paint1_linear_117_647)"/>
<defs>
<linearGradient id="paint0_linear_117_647" x1="36.9706" y1="372.787" x2="455.971" y2="64.6985" gradientUnits="userSpaceOnUse">
<stop stop-color="#68DF7E"/>
<stop offset="1" stop-color="#10B52E"/>
</linearGradient>
<linearGradient id="paint1_linear_117_647" x1="177" y1="231.132" x2="199.299" y2="188.25" gradientUnits="userSpaceOnUse">
<stop stop-color="#68DF7E"/>
<stop offset="1" stop-color="#10B52E"/>
</linearGradient>
</defs>
</svg>
