<svg width="22" height="22" viewBox="0 0 22 22" fill="none" xmlns="http://www.w3.org/2000/svg">
<path d="M10.186 21.418L8.90219 17.6307C8.19316 15.5391 6.54269 13.8345 4.36925 13.0978L0.582027 11.814C-0.194074 11.5509 -0.193945 10.4491 0.582027 10.186L4.36925 8.90217C6.46088 8.19318 8.16545 6.54262 8.90219 4.36921L10.186 0.582014C10.4491 -0.194091 11.551 -0.193919 11.814 0.582014L13.0978 4.36921C13.8069 6.46085 15.4573 8.16543 17.6308 8.90217L21.418 10.186C22.1941 10.4491 22.1939 11.5509 21.418 11.814L17.6308 13.0978C15.5392 13.8068 13.8346 15.4573 13.0978 17.6307L11.814 21.418C11.5509 22.1941 10.449 22.1939 10.186 21.418ZM3.53518 11L4.92114 11.4697C7.50932 12.3471 9.61856 14.3894 10.5302 17.0789L11 18.4648L11.4698 17.0789C12.3472 14.4907 14.3895 12.3814 17.0789 11.4697L18.4648 11L17.0789 10.5301C14.4907 9.6528 12.3815 7.61044 11.4698 4.92102L11 3.53505L10.5302 4.92102C9.65285 7.50921 7.61051 9.61846 4.92114 10.5301L3.53518 11Z" fill="white"/>
</svg>
